<?xml version="1.0" encoding="utf-8"?>
<!-- Generator: Adobe Illustrator 16.0.3, SVG Export Plug-In . SVG Version: 6.00 Build 0)  -->
<!DOCTYPE svg PUBLIC "-//W3C//DTD SVG 1.1//EN" "http://www.w3.org/Graphics/SVG/1.1/DTD/svg11.dtd">
<svg version="1.1" id="Layer_1" xmlns="http://www.w3.org/2000/svg" xmlns:xlink="http://www.w3.org/1999/xlink" x="0px" y="0px"
	 width="882.608px" height="258.695px" viewBox="0 0 882.608 258.695" enable-background="new 0 0 882.608 258.695"
	 xml:space="preserve">
<path fill="#FFFFFF" d="M56.687,168.834c0,18.354-2.314,28.438-18.546,32.71l4.595,21.731c11.429-2.212,20.34-7.938,27.927-15.943
	c9.171-9.569,9.823-23.347,9.823-38.373V83.388H56.687V168.834z"/>
<path fill="#FFFFFF" d="M484.519,94.606c-10.433-8.917-24.158-13.386-41.171-13.386c-17.437,0-31.302,5.014-41.597,15.035
	c-10.296,10.021-15.44,22.65-15.44,37.885c0,15.925,4.667,28.488,14,37.682c9.745,9.756,23.749,14.622,42.011,14.622
	c12.337,0,23.11-2.334,32.316-7.001c6.709-3.399,12.448-9.081,17.225-17.02l-20.775-7.146c-5.932,7.849-14.926,11.832-26.983,11.832
	c-18.987,0-29.495-7.858-31.527-23.622h87.455l0.138-13.059C500.171,115.471,494.955,103.53,484.519,94.606 M411.766,121.663
	c1.308-5.948,4.115-10.095,8.421-14.037c5.611-5.14,13.309-7.476,23.107-7.476c9.783,0,17.429,2.218,22.924,7.354
	c4.176,3.941,6.802,8.211,7.881,14.159H411.766z"/>
<path fill="#FFFFFF" d="M593.523,89.833c-8.548-5.784-19.379-8.689-32.613-8.689c-13.238,0-24.447,2.905-32.999,8.689
	c-9.793,6.629-15.007,16.005-15.007,28.136v66.167H536.7v-61.465c0-12.239,7.961-18.364,23.799-18.364
	c15.839,0,23.799,6.125,23.799,18.364v61.465H608.1v-66.167C608.1,105.838,603.32,96.462,593.523,89.833"/>
<path fill="#FFFFFF" d="M362.39,90.501c-7.383-6.272-17.928-9.422-31.582-9.422c-13.458,0-23.871,3.069-31.236,9.168
	c-7.37-6.099-17.774-9.168-31.227-9.168c-13.659,0-24.646,3.149-32.029,9.422c-7.386,6.278-11.548,15.417-11.548,27.426v66.209
	h23.799v-61.513c0-6.478,1.512-11.164,4.572-14.044c3.059-2.882,8.365-4.323,15.209-4.323s11.691,1.441,14.755,4.323
	c3.061,2.88,4.139,7.566,4.139,14.044v61.513h23.797v-61.532c0-6.468,1.505-11.148,4.56-14.024
	c3.059-2.882,8.359-4.323,15.203-4.323s11.702,1.441,14.768,4.323c3.054,2.88,4.146,7.566,4.146,14.044v61.513h23.797v-66.209
	C373.513,105.918,369.773,96.779,362.39,90.501"/>
<path fill="#FFFFFF" d="M193.205,95.891c-10.431-9.811-24.276-14.722-41.969-14.722c-17.708,0-31.74,4.911-42.298,14.722
	c-10.567,9.816-15.79,22.47-15.79,37.974c0,15.511,5.242,28.133,15.673,37.875c10.429,9.745,24.543,14.615,42.243,14.615
	c13.126,0,23.131-2.69,33.544-8.051v5.832h23.799v-50.271C208.407,118.36,203.634,105.707,193.205,95.891 M175.685,155.879
	c-5.847,5.607-14.033,8.413-24.417,8.413c-10.383,0-18.456-2.806-24.305-8.413c-5.85-5.608-8.798-12.956-8.798-22.03
	c0-9.188,2.879-16.586,8.672-22.204c5.784-5.61,13.926-8.423,24.431-8.423c10.51,0,18.756,2.813,24.545,8.423
	c5.791,5.618,8.674,13.017,8.674,22.204C184.486,142.923,181.531,150.271,175.685,155.879"/>
<path fill="#FFFFFF" d="M796.809,81.169c-17.141,0-30.052,5.172-39.884,15.511c-9.296,9.55-13.912,22.008-13.912,37.377
	c0,14.988,4.612,27.247,13.787,36.787c9.825,10.339,23.256,15.511,40.009,15.511c16.75,0,30.181-5.172,40.006-15.511
	c9.175-9.54,13.777-21.799,13.777-36.787c0-15.369-4.603-27.827-13.912-37.377C826.854,86.341,813.95,81.169,796.809,81.169
	 M819.375,155.641c-5.315,5.885-12.969,8.824-22.566,8.824c-9.601,0-17.244-2.939-22.569-8.824
	c-4.976-5.415-7.453-12.621-7.453-21.622c0-8.988,2.629-16.396,7.887-22.22c5.261-5.822,12.767-8.74,22.136-8.74
	c9.367,0,16.875,2.918,22.13,8.74c5.261,5.823,7.894,13.231,7.894,22.22C826.832,143.02,824.344,150.226,819.375,155.641"/>
<path fill="#FFFFFF" d="M706.271,44.318v44.799c-8.924-5.287-18.638-7.948-30.533-7.948c-17.142,0-30.553,5.172-40.382,15.511
	c-9.306,9.553-13.919,22.008-13.919,37.377c0,14.988,4.609,27.247,13.784,36.787c9.829,10.342,23.134,15.511,39.878,15.511
	c16.752,0,31.357-5.082,41.193-15.425c9.171-9.539,13.773-21.802,13.773-36.786V44.318H706.271z M698.715,155.48
	c-5.315,5.887-14.072,8.984-23.67,8.984c-9.599,0-17.064-2.939-22.381-8.824c-4.972-5.415-7.456-12.621-7.456-21.622
	c0-8.994,2.626-16.396,7.894-22.22c5.258-5.829,12.57-8.737,21.943-8.737c10.291,0,18.12,2.767,23.503,8.301
	c5.367,5.54,8.058,13.091,8.058,22.656C706.605,143.02,703.69,150.065,698.715,155.48"/>
<path fill="#FFFFFF" d="M82.701,56.17c0,7.794-6.321,14.117-14.114,14.117c-7.794,0-14.118-6.323-14.118-14.117
	s6.324-14.111,14.118-14.111C76.38,42.059,82.701,48.376,82.701,56.17"/>
<path fill="#FFFFFF" d="M791.981,151.612c-3.274,2.449-5.945,1.114-5.945-2.979v-29.747c0-4.09,2.671-5.425,5.945-2.973
	l17.851,13.386c4.118,3.088,4.118,5.836,0,8.924L791.981,151.612z"/>
<g>
</g>
<g>
</g>
</svg>
